<svg id="visual" viewBox="0 0 900 600" width="900" height="600" xmlns="http://www.w3.org/2000/svg" xmlns:xlink="http://www.w3.org/1999/xlink" version="1.1"><rect x="0" y="0" width="900" height="600" fill="#001220"></rect><path d="M0 359L21.5 366.3C43 373.7 86 388.3 128.8 391.8C171.7 395.3 214.3 387.7 257.2 394.7C300 401.7 343 423.3 385.8 432.5C428.7 441.7 471.3 438.3 514.2 430.8C557 423.3 600 411.7 642.8 411.3C685.7 411 728.3 422 771.2 417.2C814 412.3 857 391.7 878.5 381.3L900 371L900 601L878.5 601C857 601 814 601 771.2 601C728.3 601 685.7 601 642.8 601C600 601 557 601 514.2 601C471.3 601 428.7 601 385.8 601C343 601 300 601 257.2 601C214.3 601 171.7 601 128.8 601C86 601 43 601 21.5 601L0 601Z" fill="#fa7268"></path><path d="M0 432L21.5 434C43 436 86 440 128.8 435.2C171.7 430.3 214.3 416.7 257.2 422C300 427.3 343 451.7 385.8 462.8C428.7 474 471.3 472 514.2 472.2C557 472.3 600 474.7 642.8 463.5C685.7 452.3 728.3 427.7 771.2 423.3C814 419 857 435 878.5 443L900 451L900 601L878.5 601C857 601 814 601 771.2 601C728.3 601 685.7 601 642.8 601C600 601 557 601 514.2 601C471.3 601 428.7 601 385.8 601C343 601 300 601 257.2 601C214.3 601 171.7 601 128.8 601C86 601 43 601 21.5 601L0 601Z" fill="#ef5f67"></path><path d="M0 479L21.5 483C43 487 86 495 128.8 499.5C171.7 504 214.3 505 257.2 497.3C300 489.7 343 473.3 385.8 464.3C428.7 455.3 471.3 453.7 514.2 458.2C557 462.7 600 473.3 642.8 475.5C685.7 477.7 728.3 471.3 771.2 467.7C814 464 857 463 878.5 462.5L900 462L900 601L878.5 601C857 601 814 601 771.2 601C728.3 601 685.7 601 642.8 601C600 601 557 601 514.2 601C471.3 601 428.7 601 385.8 601C343 601 300 601 257.2 601C214.3 601 171.7 601 128.8 601C86 601 43 601 21.5 601L0 601Z" fill="#e34c67"></path><path d="M0 499L21.5 498C43 497 86 495 128.8 494.2C171.7 493.3 214.3 493.7 257.2 496C300 498.3 343 502.7 385.8 500.3C428.7 498 471.3 489 514.2 488.7C557 488.3 600 496.7 642.8 499.5C685.7 502.3 728.3 499.7 771.2 497.2C814 494.7 857 492.3 878.5 491.2L900 490L900 601L878.5 601C857 601 814 601 771.2 601C728.3 601 685.7 601 642.8 601C600 601 557 601 514.2 601C471.3 601 428.7 601 385.8 601C343 601 300 601 257.2 601C214.3 601 171.7 601 128.8 601C86 601 43 601 21.5 601L0 601Z" fill="#d53867"></path><path d="M0 525L21.5 527.8C43 530.7 86 536.3 128.8 536.7C171.7 537 214.3 532 257.2 535.2C300 538.3 343 549.7 385.8 551.3C428.7 553 471.3 545 514.2 543.5C557 542 600 547 642.8 548.7C685.7 550.3 728.3 548.7 771.2 546C814 543.3 857 539.7 878.5 537.8L900 536L900 601L878.5 601C857 601 814 601 771.2 601C728.3 601 685.7 601 642.8 601C600 601 557 601 514.2 601C471.3 601 428.7 601 385.8 601C343 601 300 601 257.2 601C214.3 601 171.7 601 128.8 601C86 601 43 601 21.5 601L0 601Z" fill="#c62368"></path></svg>